<svg width="580" height="400" xmlns="http://www.w3.org/2000/svg">
 <!-- Created with Method Draw - http://github.com/duopixel/Method-Draw/ -->
 <g>
  <title>Layer 1</title>
  <path d="m304.5,92.637497c-1,0 -1,-1 -1,-1c-2,-1 -2,-2 -3,-3c0,0 -0.852722,-1.173096 -2,-2c-1.813995,-1.307449 -2,-2 -3,-2c-1,0 -2,0 -3,0c-2,0 -2,1 -2,2c0,2 0,3 0,4c0,1 0,2 0,3c0,2 0,2 0,3c0,1 0,2 -1,2c-1,0 -1,0 -3,0c-1,0 -2,0 -2,0c-1,0 -3,0 -4,0c-1,0 -2.292908,-0.707108 -3,0c-0.707092,0.707108 -0.693451,2.458801 -2,3c-0.923889,0.382683 -2.292908,1.292892 -3,2c-0.707092,0.707108 -0.458801,0.693436 -1,2c-0.38269,0.923882 0,2 -1,2c-1,0 -1,2 -2,3c0,0 -1,0 -1,1c0,0 0.38269,1.076118 0,2c-0.541199,1.306564 -1,2 -2,4c-1,2 -1,2 -1,4c0,2 -1.770233,3.026749 -2,4c-0.513733,2.176254 -0.770233,3.026749 -1,4c-0.513733,2.176254 -1,3 -1,4c0,1 -0.38269,2.076126 0,3c0.541199,1.306564 3.292908,2.292892 4,3c0.707092,0.707108 1,2 2,3c1,1 2,3 3,4c1,1 1,3 1,5c0,0 0.486267,0.823746 1,3c0.459503,1.946503 0,3 0,5c0,0 0,3 0,4c0,1 -2.173096,2.852737 -3,4c-1.307465,1.813995 -3.486267,3.823746 -4,6c-0.459503,1.946503 0,4 -2,8c-1,2 -1.789856,5.07843 -3,8c-0.855713,2.065857 -2.769501,2.390991 -5,6c-1.662506,2.689987 -2.206802,6.812653 -4,9c-2.285873,2.78833 -3.418854,3.418854 -5,5c-1.581146,1.581146 -3.418854,3.418854 -5,5c-1.581146,1.581146 -2.346191,2.70546 -4,5c-1.307449,1.813995 -2.458801,2.693436 -3,4c-0.765366,1.847763 0,4 0,4c0,1 0,2 0,4c0,0 0,2 0,3c0,1 0.917603,0.386871 2,3c0.38269,0.923874 2.152237,0.234634 4,1c1.306564,0.541199 2,1 5,1c3,0 7,0 10,0c5,0 10.027252,0.659851 18,0c6.062042,-0.501709 12,-2 18,-2c7,0 12.01947,0.39415 16,0c10.148407,-1.004898 14,-2 18,-2c7,0 11,0 16,0c4,0 8,0 10,-1c2,-1 3.458801,-0.693436 4,-2c0.38269,-0.923874 2,-2 2,-5c0,-2 0,-4 0,-6c0,-1 0.447205,-2.105576 0,-3c-2.236053,-4.472137 -5.823761,-4.486252 -8,-5c-3.893005,-0.919006 -5,0 -8,0c-4,0 -4,0 -6,0c-2,0 -2.692535,-0.186005 -4,-2c-1.653809,-2.29454 -3.642731,-3.222977 -5,-5c-3.095062,-4.052231 -1,-7 -1,-11c0,-2 13.059723,-11.209961 -4,-35c-1.30307,-1.817139 -2.852722,-1.173096 -4,-2c-1.813995,-1.307449 -3,-2 -4,-3c-2,-2 -4,-4 -4,-6c0,-2 0,-4 0,-6c0,-3 0,-4 0,-5c0,-2 0,-3 0,-5c0,-2 0,-2 0,-5c0,-1 0,-5 0,-7c0,-2 0,-3 0,-6c0,0 0,-2 0,-4c0,-1 0,-3 0,-4c0,-1 0,-3 0,-4c0,-2 -1.458801,-3.693436 -2,-5c-0.765381,-1.847755 -1,-2 -2,-2l0,-1" id="svg_3" stroke-width="1.5" stroke="#007f00" fill="#007f00"/>
  <path d="m319.5,295.637512c0,-2 0,-4 0,-5c0,-3 -1.493469,-3.878571 -2,-7c-1.281464,-7.896698 -0.493469,-8.878571 -1,-12c-0.640717,-3.948364 0,-6 0,-7c0,-1 0,-5 0,-9.000015c0,-3 0,-4 0,-5c0,-2 0.38269,-3.076126 0,-4c-0.541199,-1.306564 -1.020508,-2.974503 -6,-7c-1.738922,-1.405762 -1.292908,-1.292892 -2,-2c-2.121307,-2.121323 -3.386871,-1.917603 -6,-3c-1.847748,-0.765366 -4,0 -5,0c-1,0 -1,0 -2,0c-1,0 -1,1 -1,1c-2,1 -2,2 -2,4c0,1 0,2 0,4c0,2 0,4 0,4c0,3 0,5 0,8c0,1.000015 0,2.000015 0,4.000015c0,2 0,3 0,4c0,2 0,4 0,4c0,1 0,2 0,3c0,1 0,1 0,3c0,1 0,2 0,3c0,2 0,3 0,4c0,2 0,3 0,3c0,1 0,3 0,4c0,0 0,3 0,4c0,0 0,2 0,3c0,2 1,2 2,2c1,0 2,0 2,0c1,0 4,0 5,0c1,0 3,0 4,0c1,0 2,0 3,0c0,0 1,0 2,0c2,0 2.076111,0.38269 3,0c1.306549,-0.541199 2,-1 3,-1c0,0 1.458801,0.306549 2,-1c0.38269,-0.923889 2,-1 2,-1l2,0l1,-1" id="svg_4" stroke-width="1.5" stroke="#7f3f00" fill="#7f3f00"/>
 </g>
</svg>